<svg width="1448" height="391" viewBox="0 0 1448 391" fill="none" xmlns="http://www.w3.org/2000/svg">
<circle cx="10" cy="191" r="9" stroke="#D8FD38" stroke-width="2"/>
<circle cx="1438" cy="191" r="9" stroke="#D8FD38" stroke-width="2"/>
<line x1="19" y1="190" x2="1429" y2="190" stroke="#D8FD38" stroke-width="2" stroke-linecap="round"/>
<circle cx="222" cy="193" r="9" fill="#D8FD38" stroke="#D8FD38" stroke-width="2"/>
<circle cx="559" cy="193" r="9" fill="#D8FD38" stroke="#D8FD38" stroke-width="2"/>
<circle cx="259" cy="381" r="9" fill="#D8FD38" stroke="#D8FD38" stroke-width="2"/>
<circle r="9" transform="matrix(-1 0 0 1 1194.68 378)" fill="#D8FD38" stroke="#D8FD38" stroke-width="2"/>
<circle cx="528" cy="10" r="9" fill="#D8FD38" stroke="#D8FD38" stroke-width="2"/>
<circle cx="930" cy="10" r="9" fill="#D8FD38" stroke="#D8FD38" stroke-width="2"/>
<circle cx="1233" cy="193" r="9" fill="#D8FD38" stroke="#D8FD38" stroke-width="2"/>
<circle cx="895" cy="193" r="9" fill="#D8FD38" stroke="#D8FD38" stroke-width="2"/>
<line x1="1" y1="-1" x2="98.0604" y2="-1" transform="matrix(-0.434244 0.900795 -0.897157 -0.441711 222.539 194.893)" stroke="#D8FD38" stroke-width="2" stroke-linecap="square"/>
<line x1="1" y1="-1" x2="120.724" y2="-1" transform="matrix(0.613789 0.78947 -0.783138 0.621848 179.522 284.126)" stroke="#D8FD38" stroke-width="2" stroke-linecap="square"/>
<line x1="1" y1="-1" x2="98.0604" y2="-1" transform="matrix(-0.434244 0.900795 -0.897157 -0.441711 603.127 103.254)" stroke="#D8FD38" stroke-width="2" stroke-linecap="square"/>
<line x1="1" y1="-1" x2="120.724" y2="-1" transform="matrix(0.613789 0.78947 -0.783138 0.621848 528.182 10.3252)" stroke="#D8FD38" stroke-width="2" stroke-linecap="square"/>
<line x1="1" y1="-1" x2="98.0604" y2="-1" transform="matrix(-0.434244 0.900795 -0.897157 -0.441711 222.539 194.893)" stroke="#D8FD38" stroke-width="2" stroke-linecap="square"/>
<line x1="1" y1="-1" x2="120.724" y2="-1" transform="matrix(0.613789 0.78947 -0.783138 0.621848 179.522 284.126)" stroke="#D8FD38" stroke-width="2" stroke-linecap="square"/>
<line x1="1" y1="-1" x2="98.1612" y2="-1" transform="matrix(0.412142 0.91112 -0.907803 0.419396 1233.16 193.603)" stroke="#D8FD38" stroke-width="2" stroke-linecap="square"/>
<line x1="1" y1="-1" x2="120.237" y2="-1" transform="matrix(-0.621523 0.783396 -0.776956 -0.629555 1274.03 281.369)" stroke="#D8FD38" stroke-width="2" stroke-linecap="square"/>
<line x1="1" y1="-1" x2="98.1612" y2="-1" transform="matrix(0.412142 0.91112 -0.907803 0.419396 855.13 103.254)" stroke="#D8FD38" stroke-width="2" stroke-linecap="square"/>
<line x1="1" y1="-1" x2="120.715" y2="-1" transform="matrix(-0.621523 0.783396 -0.776956 -0.629555 930.481 7.74414)" stroke="#D8FD38" stroke-width="2" stroke-linecap="square"/>
<circle cx="181" cy="283" r="9" fill="#2D2E32" stroke="#D8FD38" stroke-width="2"/>
<circle cx="855" cy="103" r="9" fill="#2D2E32" stroke="#D8FD38" stroke-width="2"/>
<circle cx="1274" cy="283" r="9" fill="#2D2E32" stroke="#D8FD38" stroke-width="2"/>
<circle cx="603" cy="103" r="9" fill="#2D2E32" stroke="#D8FD38" stroke-width="2"/>
</svg>