<svg width="1452" height="391" viewBox="0 0 1452 391" fill="none" xmlns="http://www.w3.org/2000/svg">
<circle cx="10" cy="193" r="9" stroke="#D8FD38" stroke-width="2"/>
<circle cx="1442" cy="192" r="9" stroke="#D8FD38" stroke-width="2"/>
<line x1="21" y1="190" x2="1431" y2="190" stroke="#D8FD38" stroke-width="2" stroke-linecap="round"/>
<circle cx="224" cy="193" r="9" fill="#D8FD38" stroke="#D8FD38" stroke-width="2"/>
<circle cx="561" cy="193" r="9" fill="#D8FD38" stroke="#D8FD38" stroke-width="2"/>
<circle cx="261" cy="381" r="9" fill="#D8FD38" stroke="#D8FD38" stroke-width="2"/>
<circle r="9" transform="matrix(-1 0 0 1 1196.68 378)" fill="#D8FD38" stroke="#D8FD38" stroke-width="2"/>
<circle cx="530" cy="10" r="9" fill="#D8FD38" stroke="#D8FD38" stroke-width="2"/>
<circle cx="932" cy="10" r="9" fill="#D8FD38" stroke="#D8FD38" stroke-width="2"/>
<circle cx="1235" cy="193" r="9" fill="#D8FD38" stroke="#D8FD38" stroke-width="2"/>
<circle cx="897" cy="193" r="9" fill="#D8FD38" stroke="#D8FD38" stroke-width="2"/>
<line x1="1" y1="-1" x2="98.0604" y2="-1" transform="matrix(-0.434244 0.900795 -0.897157 -0.441711 224.539 194.893)" stroke="#D8FD38" stroke-width="2" stroke-linecap="square"/>
<line x1="1" y1="-1" x2="120.724" y2="-1" transform="matrix(0.613789 0.78947 -0.783138 0.621848 181.522 284.126)" stroke="#D8FD38" stroke-width="2" stroke-linecap="square"/>
<line x1="1" y1="-1" x2="98.0604" y2="-1" transform="matrix(-0.434244 0.900795 -0.897157 -0.441711 605.127 103.254)" stroke="#D8FD38" stroke-width="2" stroke-linecap="square"/>
<line x1="1" y1="-1" x2="120.724" y2="-1" transform="matrix(0.613789 0.78947 -0.783138 0.621848 530.182 10.3252)" stroke="#D8FD38" stroke-width="2" stroke-linecap="square"/>
<line x1="1" y1="-1" x2="98.0604" y2="-1" transform="matrix(-0.434244 0.900795 -0.897157 -0.441711 224.539 194.893)" stroke="#D8FD38" stroke-width="2" stroke-linecap="square"/>
<line x1="1" y1="-1" x2="120.724" y2="-1" transform="matrix(0.613789 0.78947 -0.783138 0.621848 181.522 284.126)" stroke="#D8FD38" stroke-width="2" stroke-linecap="square"/>
<line x1="1" y1="-1" x2="98.1612" y2="-1" transform="matrix(0.412142 0.91112 -0.907803 0.419396 1235.16 193.603)" stroke="#D8FD38" stroke-width="2" stroke-linecap="square"/>
<line x1="1" y1="-1" x2="120.237" y2="-1" transform="matrix(-0.621523 0.783396 -0.776956 -0.629555 1276.03 281.369)" stroke="#D8FD38" stroke-width="2" stroke-linecap="square"/>
<line x1="1" y1="-1" x2="98.1612" y2="-1" transform="matrix(0.412142 0.91112 -0.907803 0.419396 857.13 103.254)" stroke="#D8FD38" stroke-width="2" stroke-linecap="square"/>
<line x1="1" y1="-1" x2="120.715" y2="-1" transform="matrix(-0.621523 0.783396 -0.776956 -0.629555 932.481 7.74414)" stroke="#D8FD38" stroke-width="2" stroke-linecap="square"/>
<circle cx="183" cy="283" r="9" fill="#2D2E32" stroke="#D8FD38" stroke-width="2"/>
<circle cx="857" cy="103" r="9" fill="#2D2E32" stroke="#D8FD38" stroke-width="2"/>
<circle cx="1276" cy="283" r="9" fill="#2D2E32" stroke="#D8FD38" stroke-width="2"/>
<circle cx="605" cy="103" r="9" fill="#2D2E32" stroke="#D8FD38" stroke-width="2"/>
</svg>
